# xmcd CD database file
#
# Track frame offsets:
#	150
#	51666
#	82455
#	122867
#	162084
#	192529
#	213459
#
# Disc length: 3126 seconds
#
# Revision: 2
# Processed by: cddbd v1.5.2PL0 Copyright (c) Steve Scherf et al.
# Submitted via: CDex 1.81
#
DISCID=6f0c3407
DTITLE=Manhattan Jazz Quintet - Document MJQ Japan Tour 2013 [Disc 2]
DYEAR=2013
DGENRE=Jazz
TTITLE0=Cherokee
TTITLE1=Summertime
TTITLE2=Mercy Mercy Mercy
TTITLE3=Recado Bossa Nova
TTITLE4=The Chicken
TTITLE5=Take The A Train
TTITLE6=I Got Rhythm
EXTD=YEAR: 2013
EXTT0=
EXTT1=
EXTT2=
EXTT3=
EXTT4=
EXTT5=
EXTT6=
PLAYORDER=
